<?xml version="1.0" encoding="UTF-8"?>
<svg width="371px" height="326px" viewBox="0 0 371 326" version="1.1" xmlns="http://www.w3.org/2000/svg" xmlns:xlink="http://www.w3.org/1999/xlink">
    <title>Logo</title>
    <desc>Created with Sketch.</desc>
    <g id="Page-1" stroke="none" stroke-width="1" fill="none" fill-rule="evenodd">
        <g id="Logo" fill-rule="nonzero">
            <path d="M94.26,220.45 C118.76,220.4 143.27,220.67 167.77,220.13 C176.01,219.95 178.75,222.21 178.62,230.74 C178.13,262.29 178.41,293.85 178.4,325.41 C158.25,325.33 138.09,325.24 117.94,325.16 C111.78,318.35 111.96,309.31 110.39,301.18 C108.83,293.09 107.2,285.02 105.3,277 C105.83,269.95 104.23,263.3 101.52,256.86 C101.35,254.82 101.18,252.78 101.01,250.74 C101.4,245.02 99.43,239.82 97.44,234.62 C97.89,229.55 94.96,225.25 94.26,220.45 Z" id="Path" fill="#E86D25"></path>
            <path d="M370.69,188.46 C371.35,186.37 368.56,182.84 354.07,173.98 C334.62,162.09 244.32,106.87 199.13,141.28 C185.52,151.64 174.55,171.23 178.76,176.66 C181.51,180.21 190.53,177.43 193.24,176.66 C243.4,162.38 366.82,200.81 370.69,188.46 Z" id="Path" fill="#4BB749"></path>
            <path d="M0.3,191.28 C-0.29,188.24 2.21,183.12 15.21,170.24 C32.65,152.95 113.64,72.71 154.17,122.71 C166.37,137.76 176.22,166.24 172.44,174.13 C169.97,179.29 161.88,175.25 159.46,174.13 C114.46,153.39 3.78,209.22 0.3,191.28 Z" id="Path" fill="#4BB749"></path>
            <path d="M173.98,176.83 C177.22,177.45 180.67,176.86 180.85,176.83 C190.06,175.19 188.48,166.75 187.52,156.69 C186.66,147.74 187.46,138.78 186.69,129.84 C185.64,117.74 185.04,110.7 185.02,101.31 C185,89.78 178.35,78.08 183.35,66.73 C184.23,64.73 186.88,59.36 180.85,57.67 C177.92,56.85 173.24,56.96 170.29,57.83 C164.32,59.59 166.07,64.27 166.68,66.06 C170.65,77.7 166.79,89.57 168.35,101.31 C169.44,109.57 167.78,105.23 168.35,130.18 C168.99,158.14 170.79,150.63 170.02,156.36 C168.67,166.37 165.09,175.13 173.98,176.83 Z" id="Path" fill="#4BB749"></path>
            <path d="M169.11,148.25 C169.78,147.98 172.84,152.52 174.47,157.9 C177.36,167.44 174.87,176.86 173.98,176.830071 C173.32,176.81 173.81,171.65 171.79,161.11 C170.22,152.91 168.48,148.5 169.11,148.25 Z" id="Path" fill="#009444"></path>
            <path d="M182.59,176.68 C183.54,176.92 185.73,174.49 185.92,174.27 C190.13,169.55 188.91,164.17 188.25,160.51 C187.18,154.55 187.09,148.18 186.92,135.44 C186.85,130.08 187.11,129.95 186.92,125.01 C186.68,118.53 186.14,116.44 185.59,109.03 C184.92,100.12 185.53,100.9 184.92,94.61 C183.73,82.21 181.75,83.14 182.25,77.3 C183.1,67.29 189.13,61.85 184.58,58.85 C183.06,57.85 180.51,57.22 179.24,57.77 C177.43,58.56 179.22,61.32 179.91,65.54 C181.01,72.29 177.81,73.5 178.58,81.07 C178.94,84.6 179.62,84.17 180.58,89.06 C181.69,94.71 181.21,97.43 181.25,104.15 C181.26,106.37 181.31,105.56 182.58,123.45 C182.94,128.56 182.9,128.17 183.58,137.87 C185.27,161.93 185.51,163.75 184.25,168.05 C183.25,171.49 181.32,176.35 182.59,176.68 Z" id="Path" fill="#009444"></path>
            <polygon id="Path" stroke="#9E1F63" stroke-width="0.75" fill="#ED0E75" points="142.78 39.95 204.49 40.46 203.97 78.55 141.23 78.04"></polygon>
            <path d="M190.54,177.69 C176.41,179.11 177.42,189.32 178.53,199.07 C179.53,207.91 176.47,210.96 167.43,210.34 C146.75,208.91 125.92,212.02 105.23,208.67 C102.13,208.17 98.71,209.64 95.44,210.2 C95.16,210.04 94.87,209.89 94.59,209.73 C94.87,209.89 95.15,210.04 95.44,210.2 C95.33,212.26 95.98,214.51 93.95,216.08 C86.31,206.78 77.92,197.77 81.52,184.1 C87.59,177.9 95.3,177.55 103.31,177.6 C119.67,177.7 136.04,177.67 152.4,177.29 C157.94,177.16 163.79,178.85 169.04,175.56 C172.17,175.6 175.3,175.65 178.42,175.69 C181.91,175.73 185.4,175.77 188.88,175.81 C189.43,176.43 189.99,177.06 190.54,177.69 Z" id="Path" fill="#E86D25"></path>
            <path d="M245,315.37 C242.99,318.63 240.97,321.88 238.95,325.14 C218.77,326.31 198.58,325.82 178.39,325.41 C178.4,293.85 178.12,262.29 178.61,230.74 C178.74,222.2 176,219.95 167.76,220.13 C143.27,220.66 118.76,220.4 94.25,220.45 C94.14,218.99 94.03,217.53 93.92,216.07 C95.95,214.5 95.3,212.25 95.41,210.19 L95.41,210.19 C98.68,209.63 102.1,208.16 105.2,208.66 C125.89,212 146.72,208.9 167.4,210.33 C176.45,210.95 179.51,207.9 178.5,199.06 C177.39,189.31 176.39,179.1 190.51,177.68 C214.33,177.69 238.15,177.73 261.97,177.7 C269.77,177.69 272.86,181.71 274.02,189.24 C275.61,199.53 271.28,206.44 263.63,212.2 C261.78,219.65 258.76,226.89 259.47,234.81 C257.76,240.69 255.24,246.39 255.71,252.72 C255.61,254.17 255.51,255.63 255.41,257.08 C253.21,263.56 251.03,270.04 251.63,277.06 C251.4,278.87 251.17,280.69 250.94,282.5 C245.55,292.84 246.18,304.27 245,315.37 Z" id="Path" fill="#E15326"></path>
            <path d="M151.57,29.6 C136.3,24.91 130.18,27.77 127.38,31.08 C122.63,36.69 125.84,45.49 119.51,51.72 C114.61,56.54 107.95,55.93 107.959989,57.76 C107.97,59.52 114.11,58.65 118.73,63.04 C124.32,68.34 121.92,75.85 125.74,81.35 C128.55,85.4 135.04,88.81 151.35,85.45" id="Path" stroke="#9E1F63" stroke-width="0.75" fill="#ED0E75"></path>
            <path d="M193.52,83.99 C208.77,88.73 214.91,85.9 217.72,82.6 C222.49,77 219.31,68.2 225.66,61.99 C230.57,57.19 237.23,57.82 237.23,55.99 C237.22,54.23 231.09,55.08 226.48,50.68 C220.91,45.36 223.33,37.86 219.53,32.34 C216.73,28.28 210.26,24.85 193.94,28.15" id="Path" stroke="#9E1F63" stroke-width="0.75" fill="#ED0E75"></path>
            <path d="M145.01,76.45 C140.65,91.82 143.65,97.88 147.02,100.61 C152.74,105.24 161.46,101.84 167.82,108.02 C172.75,112.81 172.28,119.48 174.11,119.430279 C175.87,119.38 174.87,113.26 179.15,108.55 C184.33,102.84 191.89,105.08 197.31,101.14 C201.3,98.24 204.56,91.68 200.85,75.45" id="Path" stroke="#9E1F63" stroke-width="0.75" fill="#ED0E75"></path>
            <path d="M198.7,45.2 C203.93,30.11 201.29,23.89 198.08,20.97 C192.64,16.02 183.73,18.92 177.74,12.37 C173.1,7.3 173.94,0.67 172.12,0.61969755 C170.36,0.57 171.01,6.73 166.46,11.2 C160.96,16.6 153.55,13.93 147.91,17.56 C143.76,20.23 140.13,26.59 142.9,43.01" id="Path" stroke="#9E1F63" stroke-width="0.75" fill="#ED0E75"></path>
            <path d="M150.06,62.78 C150.71,74.7 162.34,84.02 174.48,82.4 C185.35,80.94 193.74,71.1 193,60.34 C192.15,48.06 179.69,39.05 167.61,41.2 C157.41,43.02 149.49,52.4 150.06,62.78 Z" id="Path" fill="#F9ED36"></path>
            <path d="M184.03,45.5 C185.75,44.87 189.08,49.4 190.02,50.68 C192.12,53.54 192.83,56.18 193.01,56.9 C193.72,59.77 193.5,62.1 193.37,63.31 C193.19,64.99 192.46,72.07 186.54,77.28 C183.48,79.97 180.39,80.98 178.92,81.44 C177.03,82.03 171.25,83.58 170.48,82.11 C169.49,80.21 178.76,77.05 182.7,68.35 C187.42,57.94 181.37,46.47 184.03,45.5 Z" id="Path" fill="#F7B234" opacity="0.8"></path>
        </g>
    </g>
</svg>
