<svg width="371" height="326" viewBox="0 0 371 326" fill="none" xmlns="http://www.w3.org/2000/svg">
<path d="M94.26 220.45C118.76 220.4 142.5 216.54 167 216C175.24 215.82 181.13 221.47 181 230C180.51 261.55 178.41 293.85 178.4 325.41C158.25 325.33 138.09 325.24 117.94 325.16C111.78 318.35 111.96 309.31 110.39 301.18C108.83 293.09 107.2 285.02 105.3 277C105.83 269.95 104.23 263.3 101.52 256.86C101.35 254.82 101.18 252.78 101.01 250.74C101.4 245.02 99.43 239.82 97.44 234.62C97.89 229.55 94.96 225.25 94.26 220.45Z" fill="#EA8549"/>
<path d="M370.69 188.46C371.35 186.37 368.56 182.84 354.07 173.98C334.62 162.09 244.32 106.87 199.13 141.28C185.52 151.64 174.55 171.23 178.76 176.66C181.51 180.21 190.53 177.43 193.24 176.66C243.4 162.38 366.82 200.81 370.69 188.46Z" fill="#71B870"/>
<path d="M0.300003 191.28C-0.289997 188.24 2.21001 183.12 15.21 170.24C32.65 152.95 113.64 72.71 154.17 122.71C166.37 137.76 176.22 166.24 172.44 174.13C169.97 179.29 161.88 175.25 159.46 174.13C114.46 153.39 3.78 209.22 0.300003 191.28Z" fill="#71B870"/>
<path d="M173.98 176.83C177.22 177.45 180.67 176.86 180.85 176.83C190.06 175.19 188.48 166.75 187.52 156.69C186.66 147.74 187.46 138.78 186.69 129.84C185.64 117.74 185.04 110.7 185.02 101.31C185 89.78 178.35 78.08 183.35 66.73C184.23 64.73 186.88 59.36 180.85 57.67C177.92 56.85 173.24 56.96 170.29 57.83C164.32 59.59 166.07 64.27 166.68 66.06C170.65 77.7 166.79 89.57 168.35 101.31C169.44 109.57 167.78 105.23 168.35 130.18C168.99 158.14 170.79 150.63 170.02 156.36C168.67 166.37 165.09 175.13 173.98 176.83Z" fill="#71B870"/>
<path d="M169.11 148.25C169.78 147.98 172.84 152.52 174.47 157.9C177.36 167.44 174.87 176.86 173.98 176.83C173.32 176.81 173.81 171.65 171.79 161.11C170.22 152.91 168.48 148.5 169.11 148.25Z" fill="#319760"/>
<path d="M182.59 176.68C183.54 176.92 185.73 174.49 185.92 174.27C190.13 169.55 188.91 164.17 188.25 160.51C187.18 154.55 187.09 148.18 186.92 135.44C186.85 130.08 187.11 129.95 186.92 125.01C186.68 118.53 186.14 116.44 185.59 109.03C184.92 100.12 185.53 100.9 184.92 94.61C183.73 82.21 181.75 83.14 182.25 77.3C183.1 67.29 189.13 61.85 184.58 58.85C183.06 57.85 180.51 57.22 179.24 57.77C177.43 58.56 179.22 61.32 179.91 65.54C181.01 72.29 177.81 73.5 178.58 81.07C178.94 84.6 179.62 84.17 180.58 89.06C181.69 94.71 181.21 97.43 181.25 104.15C181.26 106.37 181.31 105.56 182.58 123.45C182.94 128.56 182.9 128.17 183.58 137.87C185.27 161.93 185.51 163.75 184.25 168.05C183.25 171.49 181.32 176.35 182.59 176.68Z" fill="#319760"/>
<path d="M142.78 39.95L204.49 40.46L203.97 78.55L141.23 78.04L142.78 39.95Z" fill="#E8589A" stroke="#9E1F63" stroke-width="0.75" stroke-miterlimit="10"/>
<path d="M190.54 177.69C176.41 179.11 179.39 190.25 180.5 200C181.5 208.84 175.54 214.12 166.5 213.5C145.82 212.07 142.69 219.43 122 216.08C118.9 215.58 102.77 215.52 99.5 216.08C99.22 215.92 103.59 211.575 103.31 211.415C103.59 211.575 99.21 215.92 99.5 216.08C99.39 218.14 95.98 214.51 93.95 216.08C86.31 206.78 77.92 197.77 81.52 184.1C87.59 177.9 95.3 177.55 103.31 177.6C119.67 177.7 136.04 177.67 152.4 177.29C157.94 177.16 163.79 178.85 169.04 175.56C172.17 175.6 175.3 175.65 178.42 175.69C181.91 175.73 185.4 175.77 188.88 175.81C189.43 176.43 189.99 177.06 190.54 177.69Z" fill="#EA8549"/>
<path d="M245 315.37C242.99 318.63 240.97 321.88 238.95 325.14C218.77 326.31 198.58 325.82 178.39 325.41C178.4 293.85 178.12 262.29 178.61 230.74C178.74 222.2 176 219.95 167.76 220.13C143.27 220.66 118.76 220.4 94.25 220.45C94.14 218.99 94.03 217.53 93.92 216.07C95.95 214.5 95.3 212.25 95.41 210.19C98.68 209.63 102.1 208.16 105.2 208.66C125.89 212 146.72 208.9 167.4 210.33C176.45 210.95 179.51 207.9 178.5 199.06C177.39 189.31 176.39 179.1 190.51 177.68C214.33 177.69 238.15 177.73 261.97 177.7C269.77 177.69 272.86 181.71 274.02 189.24C275.61 199.53 271.28 206.44 263.63 212.2C261.78 219.65 258.76 226.89 259.47 234.81C257.76 240.69 255.24 246.39 255.71 252.72C255.61 254.17 255.51 255.63 255.41 257.08C253.21 263.56 251.03 270.04 251.63 277.06C251.4 278.87 251.17 280.69 250.94 282.5C245.55 292.84 246.18 304.27 245 315.37Z" fill="#E56B44"/>
<path d="M149.57 29.6C134.3 24.91 128.18 27.77 125.38 31.08C120.63 36.69 123.84 45.49 117.51 51.72C112.61 56.54 105.95 55.93 105.96 57.76C105.97 59.52 112.11 58.65 116.73 63.04C122.32 68.34 119.92 75.85 123.74 81.35C126.55 85.4 133.04 88.81 149.35 85.45" fill="#E8589A"/>
<path d="M149.57 29.6C134.3 24.91 128.18 27.77 125.38 31.08C120.63 36.69 123.84 45.49 117.51 51.72C112.61 56.54 105.95 55.93 105.96 57.76C105.97 59.52 112.11 58.65 116.73 63.04C122.32 68.34 119.92 75.85 123.74 81.35C126.55 85.4 133.04 88.81 149.35 85.45" stroke="#9E3D71" stroke-width="0.75" stroke-miterlimit="10"/>
<path d="M193.52 83.99C208.77 88.73 214.91 85.9 217.72 82.6C222.49 77 219.31 68.2 225.66 61.99C230.57 57.19 237.23 57.82 237.23 55.99C237.22 54.23 231.09 55.08 226.48 50.68C220.91 45.36 223.33 37.86 219.53 32.34C216.73 28.28 210.26 24.85 193.94 28.15" fill="#E8589A"/>
<path d="M193.52 83.99C208.77 88.73 214.91 85.9 217.72 82.6C222.49 77 219.31 68.2 225.66 61.99C230.57 57.19 237.23 57.82 237.23 55.99C237.22 54.23 231.09 55.08 226.48 50.68C220.91 45.36 223.33 37.86 219.53 32.34C216.73 28.28 210.26 24.85 193.94 28.15" stroke="#9E3D71" stroke-width="0.75" stroke-miterlimit="10"/>
<path d="M145.01 76.45C140.65 91.82 143.65 97.88 147.02 100.61C152.74 105.24 161.46 101.84 167.82 108.02C172.75 112.81 172.28 119.48 174.11 119.43C175.87 119.38 174.87 113.26 179.15 108.55C184.33 102.84 191.89 105.08 197.31 101.14C201.3 98.24 204.56 91.68 200.85 75.45" fill="#E8589A"/>
<path d="M145.01 76.45C140.65 91.82 143.65 97.88 147.02 100.61C152.74 105.24 161.46 101.84 167.82 108.02C172.75 112.81 172.28 119.48 174.11 119.43C175.87 119.38 174.87 113.26 179.15 108.55C184.33 102.84 191.89 105.08 197.31 101.14C201.3 98.24 204.56 91.68 200.85 75.45" stroke="#9E3D71" stroke-width="0.75" stroke-miterlimit="10"/>
<path d="M198.7 45.2C203.93 30.11 201.29 23.89 198.08 20.97C192.64 16.02 183.73 18.92 177.74 12.37C173.1 7.29999 173.94 0.669992 172.12 0.619992C170.36 0.569992 171.01 6.73001 166.46 11.2C160.96 16.6 153.55 13.93 147.91 17.56C143.76 20.23 140.13 26.59 142.9 43.01" fill="#E8589A"/>
<path d="M198.7 45.2C203.93 30.11 201.29 23.89 198.08 20.97C192.64 16.02 183.73 18.92 177.74 12.37C173.1 7.29999 173.94 0.669992 172.12 0.619992C170.36 0.569992 171.01 6.73001 166.46 11.2C160.96 16.6 153.55 13.93 147.91 17.56C143.76 20.23 140.13 26.59 142.9 43.01" stroke="#9E3D71" stroke-width="0.75" stroke-miterlimit="10"/>
<path d="M150.06 62.78C150.71 74.7 162.34 84.02 174.48 82.4C185.35 80.94 193.74 71.1 193 60.34C192.15 48.06 179.69 39.05 167.61 41.2C157.41 43.02 149.49 52.4 150.06 62.78Z" fill="#FDF469"/>
<path opacity="0.8" d="M184.03 45.5C185.75 44.87 189.08 49.4 190.02 50.68C192.12 53.54 192.83 56.18 193.01 56.9C193.72 59.77 193.5 62.1 193.37 63.31C193.19 64.99 192.46 72.07 186.54 77.28C183.48 79.97 180.39 80.98 178.92 81.44C177.03 82.03 171.25 83.58 170.48 82.11C169.49 80.21 178.76 77.05 182.7 68.35C187.42 57.94 181.37 46.47 184.03 45.5Z" fill="#F8C76C"/>
</svg>
